<svg width="39" height="30" viewBox="0 0 39 30" fill="none" xmlns="http://www.w3.org/2000/svg">
<path fill-rule="evenodd" clip-rule="evenodd" d="M0 2.625C0 1.17525 1.17525 0 2.625 0H36.375C37.8247 0 39 1.17525 39 2.625C39 4.07475 37.8247 5.25 36.375 5.25H2.625C1.17525 5.25 0 4.07475 0 2.625ZM11.7001 15C11.7001 13.3431 13.0432 12 14.7001 12H36.0001C37.6569 12 39.0001 13.3431 39.0001 15C39.0001 16.6568 37.6569 18 36.0001 18H14.7001C13.0432 18 11.7001 16.6568 11.7001 15ZM22.125 24.7501C20.6753 24.7501 19.5 25.9253 19.5 27.3751C19.5 28.8248 20.6753 30.0001 22.125 30.0001H36.375C37.8247 30.0001 39 28.8248 39 27.3751C39 25.9253 37.8247 24.7501 36.375 24.7501H22.125Z" fill="white"/>
</svg>
